# xmcd
#
# Track frame offsets:
#	150
#	13198
#	24690
#	38523
#	52455
#	70005
#	87504
#	104815
#	120288
#	137366
#	148218
#	169783
#
# Disc length: 2759 seconds
#
# Revision: 1
# Processed by: cddbd v1.5.2PL0 Copyright (c) Steve Scherf et al.
# Submitted via: EasyCDDAExtractor 12.0.1.1
#
DISCID=aa0ac50c
DTITLE=Various Artist - Walk With Me
DYEAR=2008
DGENRE=Country
TTITLE0=Ane Brun - Falling Down
TTITLE1=Ila Auto - Heroes Making Dinner
TTITLE2=Lambchop - A Long Long Time
TTITLE3=The Captain And Me - Moviestar
TTITLE4=The Hyler Twins - The Cool Song
TTITLE5=Merry November - Silence Break Your Heart
TTITLE6=Grasshopper and Steven Sellick - The Charity Ego
TTITLE7=Ivar Chr. Johansen and Harald Frøland - Be Cool Be Nice
TTITLE8=Flunk - Last Word
TTITLE9=Professor Pez and Sergeant Petter - Born Again
TTITLE10=Moonpedro And The Sinking Ship - Strangers Out Of Blue
TTITLE11=Ai Phoenix - Walk With Me
EXTD=YEAR: 2008
EXTT0=
EXTT1=
EXTT2=
EXTT3=
EXTT4=
EXTT5=
EXTT6=
EXTT7=
EXTT8=
EXTT9=
EXTT10=
EXTT11=
PLAYORDER=
